<svg width="34" height="36" viewBox="0 0 34 36" fill="none" xmlns="http://www.w3.org/2000/svg">
<path d="M31.5331 21.2587C33.3041 21.2587 34.3872 23.2454 33.3855 24.7071C32.9661 25.3195 32.485 25.9018 31.9419 26.4448L26.6548 31.732C21.9107 36.476 14.2175 36.476 9.47346 31.732L4.05808 26.3166C-0.686025 21.5725 -0.686025 13.8794 4.05808 9.13526L9.34524 3.84812C14.0893 -0.895986 21.7824 -0.895986 26.5266 3.84812L31.9419 9.26347C32.4699 9.79142 32.939 10.3556 33.3478 10.9484C34.3343 12.3754 33.2784 14.3244 31.5437 14.3244C30.9403 14.3244 30.3656 14.0739 29.9553 13.632L23.4116 6.59954C20.4399 3.62788 15.6234 3.62788 12.6502 6.59954L6.81252 12.4418C3.84085 15.415 3.84085 20.233 6.81252 23.2031L12.5899 28.9806C15.5616 31.9522 20.3781 31.9522 23.3513 28.9806L29.9101 21.9632C30.3309 21.5137 30.9192 21.2587 31.5331 21.2587Z" fill="#5B84FA"/>
<path d="M24.6379 20.7833L20.9935 24.4277C19.3402 26.0809 16.6612 26.0809 15.0079 24.4277L11.3635 20.7833C9.71021 19.13 9.71021 16.451 11.3635 14.7977L15.0079 11.1532C16.6612 9.50002 19.3402 9.50002 20.9935 11.1532L24.6379 14.7977C26.2912 16.4525 26.2912 19.13 24.6379 20.7833Z" fill="#A9EEF5"/>
</svg>
