<svg width="49" height="48" viewBox="0 0 49 48" fill="none" xmlns="http://www.w3.org/2000/svg">
<g clip-path="url(#clip0_1202_42124)">
<g clip-path="url(#clip1_1202_42124)">
<path d="M45.7135 30.8571H40.142V22.7143C40.142 22.4786 39.9492 22.2857 39.7135 22.2857H26.4277V17.1429H32.2135C32.6849 17.1429 33.0706 16.7571 33.0706 16.2857V0.857143C33.0706 0.385714 32.6849 0 32.2135 0H16.7849C16.3135 0 15.9277 0.385714 15.9277 0.857143V16.2857C15.9277 16.7571 16.3135 17.1429 16.7849 17.1429H22.5706V22.2857H9.28488C9.04916 22.2857 8.85631 22.4786 8.85631 22.7143V30.8571H3.28488C2.81345 30.8571 2.42773 31.2429 2.42773 31.7143V47.1429C2.42773 47.6143 2.81345 48 3.28488 48H18.7135C19.1849 48 19.5706 47.6143 19.5706 47.1429V31.7143C19.5706 31.2429 19.1849 30.8571 18.7135 30.8571H12.7135V26.1429H36.2849V30.8571H30.2849C29.8135 30.8571 29.4277 31.2429 29.4277 31.7143V47.1429C29.4277 47.6143 29.8135 48 30.2849 48H45.7135C46.1849 48 46.5706 47.6143 46.5706 47.1429V31.7143C46.5706 31.2429 46.1849 30.8571 45.7135 30.8571ZM15.4992 34.9286V43.9286H6.49916V34.9286H15.4992ZM19.9992 13.0714V4.07143H28.9992V13.0714H19.9992ZM42.4992 43.9286H33.4992V34.9286H42.4992V43.9286Z" fill="#1890FF"/>
</g>
</g>
<defs>
<clipPath id="clip0_1202_42124">
<rect width="48" height="48" fill="white" transform="translate(0.5)"/>
</clipPath>
<clipPath id="clip1_1202_42124">
<rect width="48" height="48" fill="white" transform="translate(0.5)"/>
</clipPath>
</defs>
</svg>
