<svg width="17" height="17" viewBox="0 0 17 17" fill="none" xmlns="http://www.w3.org/2000/svg">
<path d="M8.53658 4.08185C6.25644 4.08185 4.41627 5.92203 4.41627 8.20216C4.41627 10.4823 6.25644 12.3225 8.53658 12.3225C10.8167 12.3225 12.6569 10.4823 12.6569 8.20216C12.6569 5.92203 10.8167 4.08185 8.53658 4.08185ZM8.53658 10.8801C7.06202 10.8801 5.85868 9.67671 5.85868 8.20216C5.85868 6.72761 7.06202 5.52426 8.53658 5.52426C10.0111 5.52426 11.2145 6.72761 11.2145 8.20216C11.2145 9.67671 10.0111 10.8801 8.53658 10.8801ZM12.8256 2.95283C12.2933 2.95283 11.8634 3.38274 11.8634 3.91511C11.8634 4.44747 12.2933 4.87738 12.8256 4.87738C13.358 4.87738 13.7879 4.44948 13.7879 3.91511C13.7881 3.78869 13.7633 3.66349 13.715 3.54667C13.6667 3.42985 13.5958 3.32371 13.5064 3.23432C13.417 3.14493 13.3109 3.07406 13.1941 3.02576C13.0773 2.97745 12.9521 2.95267 12.8256 2.95283ZM16.5683 8.20216C16.5683 7.09323 16.5783 5.99435 16.516 4.88743C16.4538 3.60171 16.1605 2.46064 15.2203 1.52046C14.2781 0.578276 13.139 0.286981 11.8533 0.224705C10.7444 0.162428 9.64551 0.172473 8.53859 0.172473C7.42966 0.172473 6.33077 0.162428 5.22385 0.224705C3.93814 0.286981 2.79707 0.580285 1.85689 1.52046C0.914702 2.46265 0.623407 3.60171 0.56113 4.88743C0.498854 5.99636 0.508898 7.09524 0.508898 8.20216C0.508898 9.30908 0.498854 10.41 0.56113 11.5169C0.623407 12.8026 0.916711 13.9437 1.85689 14.8839C2.79908 15.826 3.93814 16.1173 5.22385 16.1796C6.33278 16.2419 7.43167 16.2318 8.53859 16.2318C9.64752 16.2318 10.7464 16.2419 11.8533 16.1796C13.139 16.1173 14.2801 15.824 15.2203 14.8839C16.1625 13.9417 16.4538 12.8026 16.516 11.5169C16.5803 10.41 16.5683 9.31109 16.5683 8.20216ZM14.8004 12.9392C14.6538 13.3048 14.477 13.5781 14.1937 13.8593C13.9105 14.1426 13.6393 14.3193 13.2736 14.466C12.2169 14.8859 9.70778 14.7914 8.53658 14.7914C7.36537 14.7914 4.85421 14.8859 3.79752 14.468C3.43189 14.3214 3.15868 14.1446 2.87743 13.8613C2.59417 13.5781 2.41738 13.3068 2.27073 12.9412C1.85287 11.8825 1.94729 9.37337 1.94729 8.20216C1.94729 7.03095 1.85287 4.51979 2.27073 3.4631C2.41738 3.09747 2.59417 2.82426 2.87743 2.54301C3.16068 2.26176 3.43189 2.08296 3.79752 1.93631C4.85421 1.51845 7.36537 1.61287 8.53658 1.61287C9.70778 1.61287 12.2189 1.51845 13.2756 1.93631C13.6413 2.08296 13.9145 2.25975 14.1957 2.54301C14.479 2.82627 14.6558 3.09747 14.8024 3.4631C15.2203 4.51979 15.1259 7.03095 15.1259 8.20216C15.1259 9.37337 15.2203 11.8825 14.8004 12.9392Z" fill="#FAFAFA"/>
</svg>
