<svg width="174" height="42" viewBox="0 0 174 42" fill="none" xmlns="http://www.w3.org/2000/svg">
<path d="M5.56218 19.0371L8.33698 16.2624L8.33987 16.2595H13.5602L11.483 18.3366L10.9468 18.8729L8.81971 20.9999L9.08315 21.2641L20.9994 33.1796L33.1791 20.9999L31.0513 18.8729L30.9015 18.7223L28.4387 16.2595H33.659L33.6619 16.2624L35.8367 18.4372L38.3994 20.9999L20.9994 38.3999L3.59942 20.9999L5.56218 19.0371ZM20.9994 3.59991L31.0535 13.654H25.8332L20.9994 8.8202L16.1656 13.654H10.9453L20.9994 3.59991Z" fill="#096DD9"/>
<path d="M8.82006 21L10.9471 18.8729L11.4834 18.3366L9.40701 16.2595H8.34022L8.33733 16.2624L5.56253 19.0372L8.22587 21.6875L8.82006 21Z" fill="url(#paint0_linear_1211_7798)"/>
<path d="M31.0516 18.8729L33.1794 21L32.9688 21.2106L32.9695 21.2113L35.8369 18.4372L33.6621 16.2624L33.6592 16.2595H33.4479L30.9018 18.7224L31.0516 18.8729Z" fill="url(#paint1_linear_1211_7798)"/>
<path d="M8.33436 16.2595L8.33726 16.2624L10.947 18.8729L20.9997 28.9249L33.665 16.2595H8.33436Z" fill="#1890FF"/>
<path d="M58.605 22.389H52.379V29H48.628V13.094H52.379V19.298H58.605V13.094H62.345V29H58.605V22.389ZM69.8994 29.22C68.7554 29.22 67.7618 28.978 66.9184 28.494C66.0751 28.0027 65.4188 27.3207 64.9494 26.448C64.4874 25.568 64.2564 24.545 64.2564 23.379C64.2564 22.191 64.4911 21.1497 64.9604 20.255C65.4371 19.353 66.1008 18.6527 66.9514 18.154C67.8021 17.6553 68.7884 17.406 69.9104 17.406C71.0691 17.406 72.0664 17.659 72.9024 18.165C73.7458 18.6637 74.3948 19.364 74.8494 20.266C75.3041 21.1607 75.5314 22.1983 75.5314 23.379C75.5314 24.5157 75.3041 25.524 74.8494 26.404C74.4021 27.2767 73.7568 27.966 72.9134 28.472C72.0701 28.9707 71.0654 29.22 69.8994 29.22ZM69.9104 26.47C70.4238 26.47 70.8234 26.3123 71.1094 25.997C71.3954 25.6743 71.5971 25.2673 71.7144 24.776C71.8318 24.2773 71.8904 23.7713 71.8904 23.258C71.8904 22.752 71.8354 22.257 71.7254 21.773C71.6154 21.289 71.4174 20.893 71.1314 20.585C70.8454 20.2697 70.4384 20.112 69.9104 20.112C69.3971 20.112 68.9938 20.266 68.7004 20.574C68.4144 20.8747 68.2091 21.267 68.0844 21.751C67.9671 22.2277 67.9084 22.73 67.9084 23.258C67.9084 23.7567 67.9634 24.2553 68.0734 24.754C68.1908 25.2453 68.3924 25.656 68.6784 25.986C68.9718 26.3087 69.3824 26.47 69.9104 26.47ZM77.4403 29V17.626H81.1143V19.221C81.4736 18.7223 81.9539 18.297 82.5553 17.945C83.1566 17.5857 83.8973 17.406 84.7773 17.406C85.1586 17.406 85.5473 17.4757 85.9433 17.615C86.3393 17.747 86.7096 17.9487 87.0543 18.22C87.4063 18.484 87.7033 18.814 87.9453 19.21C88.3119 18.7113 88.7923 18.286 89.3863 17.934C89.9803 17.582 90.6439 17.406 91.3773 17.406C91.8026 17.406 92.2353 17.483 92.6753 17.637C93.1153 17.7837 93.5149 18.0183 93.8743 18.341C94.2409 18.6563 94.5343 19.0707 94.7543 19.584C94.9816 20.0973 95.0953 20.7243 95.0953 21.465V29H91.3443V21.96C91.3443 21.6007 91.2636 21.311 91.1023 21.091C90.9483 20.8637 90.7503 20.6987 90.5083 20.596C90.2663 20.486 90.0133 20.431 89.7493 20.431C89.4999 20.431 89.2506 20.4823 89.0013 20.585C88.7519 20.6877 88.5429 20.8453 88.3743 21.058C88.2056 21.2707 88.1213 21.542 88.1213 21.872V29H84.3813V21.817C84.3813 21.5163 84.3006 21.2633 84.1393 21.058C83.9853 20.8527 83.7873 20.6987 83.5453 20.596C83.3106 20.486 83.0649 20.431 82.8083 20.431C82.5589 20.431 82.3059 20.486 82.0493 20.596C81.7999 20.6987 81.5909 20.8563 81.4223 21.069C81.2609 21.2817 81.1803 21.5493 81.1803 21.872V29H77.4403ZM100.61 24.171C100.603 24.6917 100.684 25.1317 100.852 25.491C101.021 25.843 101.259 26.1107 101.567 26.294C101.875 26.4773 102.235 26.569 102.645 26.569C103.115 26.569 103.529 26.4737 103.888 26.283C104.255 26.085 104.523 25.744 104.691 25.26H108.035C107.911 26.0887 107.581 26.8 107.045 27.394C106.517 27.9807 105.872 28.4317 105.109 28.747C104.347 29.0623 103.558 29.22 102.744 29.22C101.586 29.22 100.566 28.9817 99.6862 28.505C98.8136 28.0283 98.1316 27.3573 97.6402 26.492C97.1562 25.6267 96.9142 24.611 96.9142 23.445C96.9142 22.3377 97.1379 21.3293 97.5852 20.42C98.0326 19.5033 98.6779 18.7737 99.5212 18.231C100.365 17.681 101.38 17.406 102.568 17.406C103.771 17.406 104.776 17.659 105.582 18.165C106.389 18.6637 106.994 19.353 107.397 20.233C107.808 21.1057 108.013 22.1067 108.013 23.236V24.171H100.61ZM100.599 22.015H104.537C104.537 21.641 104.464 21.3 104.317 20.992C104.171 20.6767 103.951 20.4273 103.657 20.244C103.364 20.0607 103.001 19.969 102.568 19.969C102.172 19.969 101.828 20.068 101.534 20.266C101.241 20.4567 101.01 20.7097 100.841 21.025C100.673 21.333 100.592 21.663 100.599 22.015ZM116.644 29.22C115.837 29.22 115.041 29.121 114.257 28.923C113.479 28.7177 112.768 28.4133 112.123 28.01C111.477 27.5993 110.942 27.086 110.517 26.47C110.099 25.854 109.853 25.1317 109.78 24.303H113.608C113.703 24.7357 113.886 25.1023 114.158 25.403C114.429 25.6963 114.774 25.9237 115.192 26.085C115.617 26.239 116.094 26.316 116.622 26.316C117.135 26.316 117.612 26.2573 118.052 26.14C118.492 26.0227 118.844 25.8393 119.108 25.59C119.379 25.3407 119.515 25.007 119.515 24.589C119.515 24.2297 119.39 23.9437 119.141 23.731C118.899 23.511 118.576 23.3387 118.173 23.214C117.769 23.082 117.333 22.972 116.864 22.884L114.268 22.389C113.058 22.1763 112.09 21.6923 111.364 20.937C110.638 20.1817 110.264 19.1587 110.242 17.868C110.227 16.834 110.502 15.9467 111.067 15.206C111.639 14.458 112.405 13.886 113.366 13.49C114.326 13.094 115.393 12.896 116.567 12.896C117.975 12.896 119.163 13.1087 120.131 13.534C121.106 13.9593 121.847 14.546 122.353 15.294C122.859 16.0347 123.119 16.8743 123.134 17.813H119.405C119.353 17.329 119.207 16.9403 118.965 16.647C118.723 16.3537 118.404 16.1447 118.008 16.02C117.619 15.888 117.164 15.822 116.644 15.822C116.218 15.822 115.852 15.866 115.544 15.954C115.236 16.0347 114.979 16.1483 114.774 16.295C114.568 16.4417 114.414 16.614 114.312 16.812C114.216 17.0027 114.169 17.2043 114.169 17.417C114.169 17.8277 114.301 18.1613 114.565 18.418C114.836 18.6673 115.353 18.8727 116.116 19.034L118.701 19.518C119.757 19.7087 120.589 20.002 121.198 20.398C121.806 20.794 122.261 21.2413 122.562 21.74C122.862 22.2313 123.053 22.7263 123.134 23.225C123.222 23.7237 123.266 24.1783 123.266 24.589C123.266 25.4617 122.98 26.25 122.408 26.954C121.843 27.658 121.062 28.2117 120.065 28.615C119.075 29.0183 117.934 29.22 116.644 29.22ZM130.334 17.406C131.339 17.406 132.201 17.6187 132.919 18.044C133.638 18.462 134.192 19.023 134.58 19.727C134.976 20.4237 135.193 21.1863 135.229 22.015H132.149C132.113 21.7583 132.028 21.4907 131.896 21.212C131.772 20.9333 131.585 20.6987 131.335 20.508C131.086 20.31 130.76 20.211 130.356 20.211C129.704 20.211 129.176 20.4713 128.772 20.992C128.376 21.5053 128.178 22.2827 128.178 23.324C128.178 24.3507 128.384 25.1537 128.794 25.733C129.205 26.3123 129.751 26.602 130.433 26.602C130.829 26.602 131.148 26.4957 131.39 26.283C131.64 26.0703 131.827 25.8247 131.951 25.546C132.076 25.2673 132.157 25.0217 132.193 24.809H135.174C135.152 25.6083 134.94 26.3417 134.536 27.009C134.14 27.6763 133.587 28.2117 132.875 28.615C132.164 29.0183 131.317 29.22 130.334 29.22C129.264 29.22 128.303 28.9817 127.452 28.505C126.609 28.021 125.942 27.339 125.45 26.459C124.959 25.579 124.713 24.5487 124.713 23.368C124.713 22.1873 124.952 21.1533 125.428 20.266C125.905 19.3713 126.565 18.671 127.408 18.165C128.259 17.659 129.234 17.406 130.334 17.406ZM137.188 29V17.626H140.796V20.541C140.972 19.947 141.225 19.4153 141.555 18.946C141.893 18.4693 142.307 18.0953 142.798 17.824C143.29 17.5453 143.858 17.406 144.503 17.406C144.584 17.406 144.654 17.4097 144.712 17.417C144.778 17.417 144.819 17.4243 144.833 17.439V20.992C144.797 20.9773 144.749 20.9663 144.69 20.959C144.639 20.9517 144.584 20.948 144.525 20.948C143.807 20.8747 143.213 20.8857 142.743 20.981C142.281 21.0763 141.915 21.2303 141.643 21.443C141.379 21.6557 141.192 21.9087 141.082 22.202C140.98 22.4953 140.928 22.8143 140.928 23.159V29H137.188ZM150.026 17.626V29H146.451V17.626H150.026ZM150.037 13.094V16.35H146.44V13.094H150.037ZM152.657 32.542V17.626H156.408L156.419 19.1C156.61 18.8213 156.833 18.5757 157.09 18.363C157.354 18.1503 157.636 17.9743 157.937 17.835C158.238 17.6957 158.549 17.5893 158.872 17.516C159.202 17.4427 159.528 17.406 159.851 17.406C160.672 17.406 161.406 17.615 162.051 18.033C162.696 18.451 163.206 19.0927 163.58 19.958C163.954 20.8233 164.141 21.9197 164.141 23.247C164.141 24.6623 163.928 25.81 163.503 26.69C163.078 27.5627 162.509 28.2043 161.798 28.615C161.094 29.0183 160.317 29.22 159.466 29.22C159.165 29.22 158.868 29.1797 158.575 29.099C158.282 29.0257 158.003 28.912 157.739 28.758C157.475 28.604 157.229 28.4207 157.002 28.208C156.775 27.988 156.573 27.735 156.397 27.449V32.542H152.657ZM158.52 26.514C159.107 26.514 159.609 26.2573 160.027 25.744C160.445 25.2307 160.654 24.4057 160.654 23.269C160.654 22.257 160.449 21.4723 160.038 20.915C159.635 20.3577 159.129 20.079 158.52 20.079C157.794 20.079 157.259 20.3907 156.914 21.014C156.569 21.63 156.397 22.3817 156.397 23.269C156.397 23.8117 156.47 24.3323 156.617 24.831C156.771 25.3297 157.002 25.7367 157.31 26.052C157.625 26.36 158.029 26.514 158.52 26.514ZM173.111 20.189H170.614L170.625 25.799C170.625 26.0263 170.658 26.195 170.724 26.305C170.797 26.415 170.896 26.4883 171.021 26.525C171.146 26.5617 171.3 26.58 171.483 26.58H173.133V28.835C172.979 28.901 172.741 28.967 172.418 29.033C172.095 29.1063 171.622 29.143 170.999 29.143C169.906 29.143 169.059 29.0073 168.458 28.736C167.864 28.4573 167.45 28.0797 167.215 27.603C166.988 27.119 166.874 26.5727 166.874 25.964V20.189H165.026V17.626H167.006L167.963 14.139H170.614V17.604H173.111V20.189Z" fill="#262626"/>
<defs>
<linearGradient id="paint0_linear_1211_7798" x1="10.3501" y1="16.9065" x2="6.68026" y2="20.5763" gradientUnits="userSpaceOnUse">
<stop stop-color="#023B95"/>
<stop offset="0.9637" stop-color="#096CD9" stop-opacity="0"/>
</linearGradient>
<linearGradient id="paint1_linear_1211_7798" x1="31.5206" y1="16.9535" x2="34.488" y2="20.3256" gradientUnits="userSpaceOnUse">
<stop stop-color="#023B95"/>
<stop offset="1" stop-color="#096DD9" stop-opacity="0"/>
</linearGradient>
</defs>
</svg>
