<svg width="49" height="48" viewBox="0 0 49 48" fill="none" xmlns="http://www.w3.org/2000/svg">
<path d="M18.2851 4.06817H15.2851C15.0494 4.06817 14.8565 4.26103 14.8565 4.49674V7.49674C14.8565 7.73246 15.0494 7.92532 15.2851 7.92532H18.2851C18.5208 7.92532 18.7137 7.73246 18.7137 7.49674V4.49674C18.7137 4.26103 18.5208 4.06817 18.2851 4.06817ZM15.9279 40.711H12.9279C12.6922 40.711 12.4994 40.9039 12.4994 41.1396V44.1396C12.4994 44.3753 12.6922 44.5682 12.9279 44.5682H15.9279C16.1637 44.5682 16.3565 44.3753 16.3565 44.1396V41.1396C16.3565 40.9039 16.1637 40.711 15.9279 40.711ZM43.9994 29.7825H40.9994C40.7637 29.7825 40.5708 29.9753 40.5708 30.211V33.211C40.5708 33.4467 40.7637 33.6396 40.9994 33.6396H43.9994C44.2351 33.6396 44.4279 33.4467 44.4279 33.211V30.211C44.4279 29.9753 44.2351 29.7825 43.9994 29.7825ZM7.35651 14.9967H4.35652C4.1208 14.9967 3.92794 15.1896 3.92794 15.4253V18.4253C3.92794 18.661 4.1208 18.8539 4.35652 18.8539H7.35651C7.59223 18.8539 7.78509 18.661 7.78509 18.4253V15.4253C7.78509 15.1896 7.59223 14.9967 7.35651 14.9967ZM7.35651 23.5682H4.35652C4.1208 23.5682 3.92794 23.761 3.92794 23.9967V26.9967C3.92794 27.2325 4.1208 27.4253 4.35652 27.4253H7.35651C7.59223 27.4253 7.78509 27.2325 7.78509 26.9967V23.9967C7.78509 23.761 7.59223 23.5682 7.35651 23.5682ZM7.35651 32.1396H4.35652C4.1208 32.1396 3.92794 32.3325 3.92794 32.5682V35.5682C3.92794 35.8039 4.1208 35.9967 4.35652 35.9967H7.35651C7.59223 35.9967 7.78509 35.8039 7.78509 35.5682V32.5682C7.78509 32.3325 7.59223 32.1396 7.35651 32.1396ZM7.35651 40.711H4.35652C4.1208 40.711 3.92794 40.9039 3.92794 41.1396V44.1396C3.92794 44.3753 4.1208 44.5682 4.35652 44.5682H7.35651C7.59223 44.5682 7.78509 44.3753 7.78509 44.1396V41.1396C7.78509 40.9039 7.59223 40.711 7.35651 40.711ZM24.4994 40.711H21.4994C21.2637 40.711 21.0708 40.9039 21.0708 41.1396V44.1396C21.0708 44.3753 21.2637 44.5682 21.4994 44.5682H24.4994C24.7351 44.5682 24.9279 44.3753 24.9279 44.1396V41.1396C24.9279 40.9039 24.7351 40.711 24.4994 40.711ZM33.0708 40.711H30.0708C29.8351 40.711 29.6422 40.9039 29.6422 41.1396V44.1396C29.6422 44.3753 29.8351 44.5682 30.0708 44.5682H33.0708C33.3065 44.5682 33.4994 44.3753 33.4994 44.1396V41.1396C33.4994 40.9039 33.3065 40.711 33.0708 40.711ZM40.5708 25.4967C40.5708 25.7325 40.7637 25.9253 40.9994 25.9253H43.9994C44.2351 25.9253 44.4279 25.7325 44.4279 25.4967V16.3896C44.4279 9.58603 38.9101 4.06817 32.1065 4.06817H22.9994C22.7637 4.06817 22.5708 4.26103 22.5708 4.49674V7.49674C22.5708 7.73246 22.7637 7.92532 22.9994 7.92532H32.1065C36.7833 7.92532 40.5708 11.7128 40.5708 16.3896V25.4967ZM9.71366 1.71103H1.99937C1.76366 1.71103 1.5708 1.90389 1.5708 2.1396V9.85389C1.5708 10.0896 1.76366 10.2825 1.99937 10.2825H9.71366C9.94937 10.2825 10.1422 10.0896 10.1422 9.85389V2.1396C10.1422 1.90389 9.94937 1.71103 9.71366 1.71103ZM7.14223 7.15389C7.14223 7.22353 7.0833 7.28246 7.01366 7.28246H4.69937C4.62973 7.28246 4.5708 7.22353 4.5708 7.15389V4.8396C4.5708 4.76996 4.62973 4.71103 4.69937 4.71103H7.01366C7.0833 4.71103 7.14223 4.76996 7.14223 4.8396V7.15389ZM46.3565 38.3539H38.6422C38.4065 38.3539 38.2137 38.5467 38.2137 38.7825V46.4967C38.2137 46.7325 38.4065 46.9253 38.6422 46.9253H46.3565C46.5922 46.9253 46.7851 46.7325 46.7851 46.4967V38.7825C46.7851 38.5467 46.5922 38.3539 46.3565 38.3539ZM43.7851 43.7967C43.7851 43.8664 43.7262 43.9253 43.6565 43.9253H41.3422C41.2726 43.9253 41.2137 43.8664 41.2137 43.7967V41.4825C41.2137 41.4128 41.2726 41.3539 41.3422 41.3539H43.6565C43.7262 41.3539 43.7851 41.4128 43.7851 41.4825V43.7967Z" fill="#52C41A"/>
</svg>
