<svg width="14" height="14" viewBox="0 0 14 14" fill="none" xmlns="http://www.w3.org/2000/svg">
<g id="icon-wrapper">
<rect width="14" height="14" fill="white"/>
<path id="icon" d="M7 0.500793C3.68594 0.500793 1 3.18673 1 6.50079V12.1258C1 12.3336 1.16719 12.5008 1.375 12.5008H4.25C4.80156 12.5008 5.25 12.0524 5.25 11.5008V8.25079C5.25 7.69923 4.80156 7.25079 4.25 7.25079H2.125V6.50079C2.125 3.80861 4.30781 1.62579 7 1.62579C9.69219 1.62579 11.875 3.80861 11.875 6.50079V7.25079H9.75C9.19844 7.25079 8.75 7.69923 8.75 8.25079V11.5008C8.75 12.0524 9.19844 12.5008 9.75 12.5008H12.625C12.8328 12.5008 13 12.3336 13 12.1258V6.50079C13 3.18673 10.3141 0.500793 7 0.500793ZM4.125 8.37579V11.3758H2.125V8.37579H4.125ZM11.875 11.3758H9.875V8.37579H11.875V11.3758Z" fill="#8C8C8C"/>
</g>
</svg>
