<svg width="14" height="14" viewBox="0 0 14 14" fill="none" xmlns="http://www.w3.org/2000/svg">
<g id="icon-wrapper">
<path id="icon" d="M12.7047 2.2343L11.0406 0.571796C10.8375 0.368671 10.5656 0.254608 10.2781 0.254608C9.99063 0.254608 9.71875 0.367108 9.51563 0.571796L7.72344 2.36086C7.52031 2.56398 7.40625 2.83742 7.40625 3.12492C7.40625 3.41398 7.51875 3.6843 7.72344 3.88898L9.12344 5.29055C8.80451 6.03365 8.34626 6.70882 7.77344 7.27961C7.2 7.85617 6.52969 8.31086 5.78594 8.63273L4.38594 7.23117C4.18281 7.02805 3.91094 6.91398 3.62344 6.91398C3.48163 6.91346 3.34114 6.94124 3.21021 6.99571C3.07928 7.05017 2.96054 7.13023 2.86094 7.23117L1.06719 9.02023C0.864063 9.22336 0.75 9.4968 0.75 9.7843C0.75 10.0734 0.8625 10.3437 1.06719 10.5484L2.72969 12.2109C3.07656 12.5577 3.55469 12.7562 4.04531 12.7562C4.14688 12.7562 4.24531 12.7484 4.34531 12.7312C6.41406 12.3905 8.46719 11.289 10.125 9.63273C11.7813 7.97336 12.8813 5.92023 13.225 3.84992C13.3234 3.26242 13.1266 2.65773 12.7047 2.2343ZM12.1172 3.66398C11.8125 5.50617 10.8219 7.34367 9.32969 8.83586C7.8375 10.328 6.00156 11.3187 4.15938 11.6234C3.92813 11.6624 3.69063 11.5843 3.52188 11.4171L1.88906 9.7843L3.62031 8.05148L5.49219 9.92648L5.50625 9.94055L5.84375 9.81555C6.86708 9.43931 7.79635 8.84505 8.56717 8.07395C9.338 7.30286 9.93193 6.37338 10.3078 5.34992L10.4328 5.01242L8.54531 3.12648L10.2766 1.39367L11.9094 3.02648C12.0781 3.19523 12.1563 3.43273 12.1172 3.66398Z" fill="#8C8C8C"/>
</g>
</svg>
