<svg width="14" height="15" viewBox="0 0 14 15" fill="none" xmlns="http://www.w3.org/2000/svg">
<g id="icon-wrapper">
<path id="icon" d="M12.5 11.0046C12.5 9.26086 11.4781 7.75461 10 7.05305V4.46242C10 4.22648 9.91719 3.99836 9.76406 3.81867L7.38281 0.995233C7.28281 0.876483 7.14063 0.817108 7 0.817108C6.85938 0.817108 6.71719 0.876483 6.61719 0.995233L4.23594 3.81867C4.08385 3.99873 4.00029 4.22673 4 4.46242V7.05305C2.52188 7.75461 1.5 9.26086 1.5 11.0046H3.94531C3.90938 11.1171 3.89063 11.239 3.89063 11.3765C3.89063 11.7218 4.00938 12.0593 4.225 12.3265C4.401 12.545 4.6341 12.7105 4.89844 12.8046C5.25938 13.6484 6.07969 14.1921 7 14.1921C7.45469 14.1921 7.89531 14.0577 8.27188 13.8046C8.64063 13.5577 8.92656 13.2124 9.1 12.8046C9.36423 12.7111 9.59734 12.5461 9.77344 12.328C9.98935 12.0584 10.1073 11.7235 10.1078 11.378C10.1078 11.2468 10.0906 11.1218 10.0594 11.0062H12.5V11.0046ZM10.9109 9.21398C11.0578 9.44211 11.1766 9.68742 11.2625 9.94211H9.9375V8.2343C10.3273 8.48869 10.659 8.82254 10.9109 9.21398ZM5.0625 7.05305V4.48586L7 2.18898L8.9375 4.48586V9.94211H5.0625V7.05305ZM2.7375 9.94211C2.82344 9.68742 2.94219 9.44211 3.08906 9.21398C3.34375 8.82023 3.675 8.48742 4.0625 8.2343V9.94211H2.7375ZM8.81406 11.7577C8.73281 11.8046 8.63906 11.8234 8.54688 11.8109L8.24219 11.7734L8.19844 12.0765C8.11406 12.6687 7.59844 13.1155 7 13.1155C6.40156 13.1155 5.88594 12.6687 5.80156 12.0765L5.75781 11.7718L5.45313 11.8109C5.3605 11.8219 5.26678 11.8027 5.18594 11.7562C5.05 11.678 4.96563 11.5327 4.96563 11.3749C4.96563 11.2093 5.05781 11.0718 5.19375 11.003H8.80781C8.94531 11.0734 9.03594 11.2109 9.03594 11.3749C9.03438 11.5343 8.95 11.6812 8.81406 11.7577ZM6.25 5.75461C6.25 5.95352 6.32902 6.14429 6.46967 6.28494C6.61032 6.42559 6.80109 6.50461 7 6.50461C7.19891 6.50461 7.38968 6.42559 7.53033 6.28494C7.67098 6.14429 7.75 5.95352 7.75 5.75461C7.75 5.5557 7.67098 5.36493 7.53033 5.22428C7.38968 5.08363 7.19891 5.00461 7 5.00461C6.80109 5.00461 6.61032 5.08363 6.46967 5.22428C6.32902 5.36493 6.25 5.5557 6.25 5.75461Z" fill="#8C8C8C"/>
</g>
</svg>
