<svg width="14" height="15" viewBox="0 0 14 15" fill="none" xmlns="http://www.w3.org/2000/svg">
<g id="icon-wrapper">
<rect width="14" height="14" transform="translate(0 1)" fill="white"/>
<path id="icon" d="M6.25009 7.50275C6.25009 7.70166 6.32911 7.89242 6.46976 8.03308C6.61041 8.17373 6.80118 8.25275 7.00009 8.25275C7.199 8.25275 7.38977 8.17373 7.53042 8.03308C7.67107 7.89242 7.75009 7.70166 7.75009 7.50275C7.75009 7.30383 7.67107 7.11307 7.53042 6.97242C7.38977 6.83176 7.199 6.75275 7.00009 6.75275C6.80118 6.75275 6.61041 6.83176 6.46976 6.97242C6.32911 7.11307 6.25009 7.30383 6.25009 7.50275ZM9.37509 7.50275C9.37509 7.70166 9.45411 7.89242 9.59476 8.03308C9.73541 8.17373 9.92618 8.25275 10.1251 8.25275C10.324 8.25275 10.5148 8.17373 10.6554 8.03308C10.7961 7.89242 10.8751 7.70166 10.8751 7.50275C10.8751 7.30383 10.7961 7.11307 10.6554 6.97242C10.5148 6.83176 10.324 6.75275 10.1251 6.75275C9.92618 6.75275 9.73541 6.83176 9.59476 6.97242C9.45411 7.11307 9.37509 7.30383 9.37509 7.50275ZM3.12509 7.50275C3.12509 7.70166 3.20411 7.89242 3.34476 8.03308C3.48541 8.17373 3.67618 8.25275 3.87509 8.25275C4.074 8.25275 4.26477 8.17373 4.40542 8.03308C4.54607 7.89242 4.62509 7.70166 4.62509 7.50275C4.62509 7.30383 4.54607 7.11307 4.40542 6.97242C4.26477 6.83176 4.074 6.75275 3.87509 6.75275C3.67618 6.75275 3.48541 6.83176 3.34476 6.97242C3.20411 7.11307 3.12509 7.30383 3.12509 7.50275ZM13.4563 4.79025C13.1032 3.95118 12.597 3.19806 11.9517 2.55118C11.3109 1.90805 10.5501 1.39684 9.71259 1.0465C8.85321 0.685559 7.94071 0.502747 7.00009 0.502747H6.96884C6.02196 0.507434 5.10478 0.694934 4.24228 1.06368C3.4119 1.41762 2.65831 1.92974 2.02353 2.5715C1.38446 3.21681 0.882901 3.96681 0.536026 4.80275C0.176651 5.66837 -0.00459886 6.58868 8.86449e-05 7.53556C0.0053906 8.62067 0.262107 9.68979 0.750089 10.659V13.034C0.750089 13.2246 0.825814 13.4074 0.960606 13.5422C1.0954 13.677 1.27821 13.7527 1.46884 13.7527H3.8454C4.81461 14.2407 5.88373 14.4974 6.96884 14.5027H7.00165C7.93759 14.5027 8.8454 14.3215 9.70009 13.9668C10.5334 13.6206 11.2913 13.1154 11.9313 12.4793C12.5767 11.8402 13.0845 11.0934 13.4392 10.2606C13.8079 9.39806 13.9954 8.48087 14.0001 7.534C14.0048 6.58243 13.8204 5.659 13.4563 4.79025ZM11.0954 11.634C10.0001 12.7184 8.54696 13.3152 7.00009 13.3152H6.97353C6.03134 13.3106 5.0954 13.0762 4.26884 12.6356L4.13759 12.5652H1.93759V10.3652L1.86728 10.234C1.42665 9.40743 1.19228 8.4715 1.18759 7.52931C1.18134 5.9715 1.77665 4.509 2.86884 3.40743C3.95946 2.30587 5.41728 1.6965 6.97509 1.69025H7.00165C7.7829 1.69025 8.54071 1.84181 9.25478 2.14181C9.95165 2.434 10.5767 2.85431 11.1142 3.39181C11.6501 3.92775 12.072 4.55431 12.3642 5.25118C12.6673 5.97306 12.8188 6.73868 12.8157 7.52931C12.8063 9.08556 12.1954 10.5434 11.0954 11.634Z" fill="#8C8C8C"/>
</g>
</svg>
