<svg width="173" height="35" viewBox="0 0 173 35" fill="none" xmlns="http://www.w3.org/2000/svg">
<path d="M5.13564 15.8644L7.44797 13.552L7.45038 13.5496H11.8006L10.0697 15.2806L9.62278 15.7275L7.85024 17.5L8.06977 17.7201L18 27.6498L28.1498 17.5L26.3766 15.7275L26.2518 15.602L24.1994 13.5496H28.5496L28.552 13.552L30.3644 15.3644L32.5 17.5L18 32L3.5 17.5L5.13564 15.8644ZM18 3L26.3784 11.3784H22.0282L18 7.35024L13.9718 11.3784H9.62158L18 3Z" fill="#096DD9"/>
<path d="M7.85037 17.4999L9.62292 15.7274L10.0698 15.2805L8.3395 13.5496H7.45051L7.4481 13.552L5.13577 15.8643L7.35522 18.0729L7.85037 17.4999Z" fill="url(#paint0_linear_1418_743)"/>
<path d="M26.3767 15.7274L28.1499 17.4999L27.9744 17.6754L27.975 17.676L30.3645 15.3643L28.5522 13.552L28.5497 13.5496H28.3736L26.2519 15.6019L26.3767 15.7274Z" fill="url(#paint1_linear_1418_743)"/>
<path d="M7.44555 13.5496L7.44796 13.552L9.62278 15.7274L18 24.104L28.5544 13.5496H7.44555Z" fill="#1890FF"/>
<path d="M57.105 18.889H50.879V25.5H47.128V9.594H50.879V15.798H57.105V9.594H60.845V25.5H57.105V18.889ZM68.3994 25.72C67.2554 25.72 66.2618 25.478 65.4184 24.994C64.5751 24.5027 63.9188 23.8207 63.4494 22.948C62.9874 22.068 62.7564 21.045 62.7564 19.879C62.7564 18.691 62.9911 17.6497 63.4604 16.755C63.9371 15.853 64.6008 15.1527 65.4514 14.654C66.3021 14.1553 67.2884 13.906 68.4104 13.906C69.5691 13.906 70.5664 14.159 71.4024 14.665C72.2458 15.1637 72.8948 15.864 73.3494 16.766C73.8041 17.6607 74.0314 18.6983 74.0314 19.879C74.0314 21.0157 73.8041 22.024 73.3494 22.904C72.9021 23.7767 72.2568 24.466 71.4134 24.972C70.5701 25.4707 69.5654 25.72 68.3994 25.72ZM68.4104 22.97C68.9238 22.97 69.3234 22.8123 69.6094 22.497C69.8954 22.1743 70.0971 21.7673 70.2144 21.276C70.3318 20.7773 70.3904 20.2713 70.3904 19.758C70.3904 19.252 70.3354 18.757 70.2254 18.273C70.1154 17.789 69.9174 17.393 69.6314 17.085C69.3454 16.7697 68.9384 16.612 68.4104 16.612C67.8971 16.612 67.4938 16.766 67.2004 17.074C66.9144 17.3747 66.7091 17.767 66.5844 18.251C66.4671 18.7277 66.4084 19.23 66.4084 19.758C66.4084 20.2567 66.4634 20.7553 66.5734 21.254C66.6908 21.7453 66.8924 22.156 67.1784 22.486C67.4718 22.8087 67.8824 22.97 68.4104 22.97ZM75.9403 25.5V14.126H79.6143V15.721C79.9736 15.2223 80.4539 14.797 81.0553 14.445C81.6566 14.0857 82.3973 13.906 83.2773 13.906C83.6586 13.906 84.0473 13.9757 84.4433 14.115C84.8393 14.247 85.2096 14.4487 85.5543 14.72C85.9063 14.984 86.2033 15.314 86.4453 15.71C86.8119 15.2113 87.2923 14.786 87.8863 14.434C88.4803 14.082 89.1439 13.906 89.8773 13.906C90.3026 13.906 90.7353 13.983 91.1753 14.137C91.6153 14.2837 92.0149 14.5183 92.3743 14.841C92.7409 15.1563 93.0343 15.5707 93.2543 16.084C93.4816 16.5973 93.5953 17.2243 93.5953 17.965V25.5H89.8443V18.46C89.8443 18.1007 89.7636 17.811 89.6023 17.591C89.4483 17.3637 89.2503 17.1987 89.0083 17.096C88.7663 16.986 88.5133 16.931 88.2493 16.931C87.9999 16.931 87.7506 16.9823 87.5013 17.085C87.2519 17.1877 87.0429 17.3453 86.8743 17.558C86.7056 17.7707 86.6213 18.042 86.6213 18.372V25.5H82.8813V18.317C82.8813 18.0163 82.8006 17.7633 82.6393 17.558C82.4853 17.3527 82.2873 17.1987 82.0453 17.096C81.8106 16.986 81.5649 16.931 81.3083 16.931C81.0589 16.931 80.8059 16.986 80.5493 17.096C80.2999 17.1987 80.0909 17.3563 79.9223 17.569C79.7609 17.7817 79.6803 18.0493 79.6803 18.372V25.5H75.9403ZM99.1102 20.671C99.1029 21.1917 99.1836 21.6317 99.3522 21.991C99.5209 22.343 99.7592 22.6107 100.067 22.794C100.375 22.9773 100.735 23.069 101.145 23.069C101.615 23.069 102.029 22.9737 102.388 22.783C102.755 22.585 103.023 22.244 103.191 21.76H106.535C106.411 22.5887 106.081 23.3 105.545 23.894C105.017 24.4807 104.372 24.9317 103.609 25.247C102.847 25.5623 102.058 25.72 101.244 25.72C100.086 25.72 99.0662 25.4817 98.1862 25.005C97.3136 24.5283 96.6316 23.8573 96.1402 22.992C95.6562 22.1267 95.4142 21.111 95.4142 19.945C95.4142 18.8377 95.6379 17.8293 96.0852 16.92C96.5326 16.0033 97.1779 15.2737 98.0212 14.731C98.8646 14.181 99.8802 13.906 101.068 13.906C102.271 13.906 103.276 14.159 104.082 14.665C104.889 15.1637 105.494 15.853 105.897 16.733C106.308 17.6057 106.513 18.6067 106.513 19.736V20.671H99.1102ZM99.0992 18.515H103.037C103.037 18.141 102.964 17.8 102.817 17.492C102.671 17.1767 102.451 16.9273 102.157 16.744C101.864 16.5607 101.501 16.469 101.068 16.469C100.672 16.469 100.328 16.568 100.034 16.766C99.7409 16.9567 99.5099 17.2097 99.3412 17.525C99.1726 17.833 99.0919 18.163 99.0992 18.515ZM115.144 25.72C114.337 25.72 113.541 25.621 112.757 25.423C111.979 25.2177 111.268 24.9133 110.623 24.51C109.977 24.0993 109.442 23.586 109.017 22.97C108.599 22.354 108.353 21.6317 108.28 20.803H112.108C112.203 21.2357 112.386 21.6023 112.658 21.903C112.929 22.1963 113.274 22.4237 113.692 22.585C114.117 22.739 114.594 22.816 115.122 22.816C115.635 22.816 116.112 22.7573 116.552 22.64C116.992 22.5227 117.344 22.3393 117.608 22.09C117.879 21.8407 118.015 21.507 118.015 21.089C118.015 20.7297 117.89 20.4437 117.641 20.231C117.399 20.011 117.076 19.8387 116.673 19.714C116.269 19.582 115.833 19.472 115.364 19.384L112.768 18.889C111.558 18.6763 110.59 18.1923 109.864 17.437C109.138 16.6817 108.764 15.6587 108.742 14.368C108.727 13.334 109.002 12.4467 109.567 11.706C110.139 10.958 110.905 10.386 111.866 9.99C112.826 9.594 113.893 9.396 115.067 9.396C116.475 9.396 117.663 9.60867 118.631 10.034C119.606 10.4593 120.347 11.046 120.853 11.794C121.359 12.5347 121.619 13.3743 121.634 14.313H117.905C117.853 13.829 117.707 13.4403 117.465 13.147C117.223 12.8537 116.904 12.6447 116.508 12.52C116.119 12.388 115.664 12.322 115.144 12.322C114.718 12.322 114.352 12.366 114.044 12.454C113.736 12.5347 113.479 12.6483 113.274 12.795C113.068 12.9417 112.914 13.114 112.812 13.312C112.716 13.5027 112.669 13.7043 112.669 13.917C112.669 14.3277 112.801 14.6613 113.065 14.918C113.336 15.1673 113.853 15.3727 114.616 15.534L117.201 16.018C118.257 16.2087 119.089 16.502 119.698 16.898C120.306 17.294 120.761 17.7413 121.062 18.24C121.362 18.7313 121.553 19.2263 121.634 19.725C121.722 20.2237 121.766 20.6783 121.766 21.089C121.766 21.9617 121.48 22.75 120.908 23.454C120.343 24.158 119.562 24.7117 118.565 25.115C117.575 25.5183 116.434 25.72 115.144 25.72ZM128.834 13.906C129.839 13.906 130.701 14.1187 131.419 14.544C132.138 14.962 132.692 15.523 133.08 16.227C133.476 16.9237 133.693 17.6863 133.729 18.515H130.649C130.613 18.2583 130.528 17.9907 130.396 17.712C130.272 17.4333 130.085 17.1987 129.835 17.008C129.586 16.81 129.26 16.711 128.856 16.711C128.204 16.711 127.676 16.9713 127.272 17.492C126.876 18.0053 126.678 18.7827 126.678 19.824C126.678 20.8507 126.884 21.6537 127.294 22.233C127.705 22.8123 128.251 23.102 128.933 23.102C129.329 23.102 129.648 22.9957 129.89 22.783C130.14 22.5703 130.327 22.3247 130.451 22.046C130.576 21.7673 130.657 21.5217 130.693 21.309H133.674C133.652 22.1083 133.44 22.8417 133.036 23.509C132.64 24.1763 132.087 24.7117 131.375 25.115C130.664 25.5183 129.817 25.72 128.834 25.72C127.764 25.72 126.803 25.4817 125.952 25.005C125.109 24.521 124.442 23.839 123.95 22.959C123.459 22.079 123.213 21.0487 123.213 19.868C123.213 18.6873 123.452 17.6533 123.928 16.766C124.405 15.8713 125.065 15.171 125.908 14.665C126.759 14.159 127.734 13.906 128.834 13.906ZM135.688 25.5V14.126H139.296V17.041C139.472 16.447 139.725 15.9153 140.055 15.446C140.393 14.9693 140.807 14.5953 141.298 14.324C141.79 14.0453 142.358 13.906 143.003 13.906C143.084 13.906 143.154 13.9097 143.212 13.917C143.278 13.917 143.319 13.9243 143.333 13.939V17.492C143.297 17.4773 143.249 17.4663 143.19 17.459C143.139 17.4517 143.084 17.448 143.025 17.448C142.307 17.3747 141.713 17.3857 141.243 17.481C140.781 17.5763 140.415 17.7303 140.143 17.943C139.879 18.1557 139.692 18.4087 139.582 18.702C139.48 18.9953 139.428 19.3143 139.428 19.659V25.5H135.688ZM148.526 14.126V25.5H144.951V14.126H148.526ZM148.537 9.594V12.85H144.94V9.594H148.537ZM151.157 29.042V14.126H154.908L154.919 15.6C155.11 15.3213 155.333 15.0757 155.59 14.863C155.854 14.6503 156.136 14.4743 156.437 14.335C156.738 14.1957 157.049 14.0893 157.372 14.016C157.702 13.9427 158.028 13.906 158.351 13.906C159.172 13.906 159.906 14.115 160.551 14.533C161.196 14.951 161.706 15.5927 162.08 16.458C162.454 17.3233 162.641 18.4197 162.641 19.747C162.641 21.1623 162.428 22.31 162.003 23.19C161.578 24.0627 161.009 24.7043 160.298 25.115C159.594 25.5183 158.817 25.72 157.966 25.72C157.665 25.72 157.368 25.6797 157.075 25.599C156.782 25.5257 156.503 25.412 156.239 25.258C155.975 25.104 155.729 24.9207 155.502 24.708C155.275 24.488 155.073 24.235 154.897 23.949V29.042H151.157ZM157.02 23.014C157.607 23.014 158.109 22.7573 158.527 22.244C158.945 21.7307 159.154 20.9057 159.154 19.769C159.154 18.757 158.949 17.9723 158.538 17.415C158.135 16.8577 157.629 16.579 157.02 16.579C156.294 16.579 155.759 16.8907 155.414 17.514C155.069 18.13 154.897 18.8817 154.897 19.769C154.897 20.3117 154.97 20.8323 155.117 21.331C155.271 21.8297 155.502 22.2367 155.81 22.552C156.125 22.86 156.529 23.014 157.02 23.014ZM171.611 16.689H169.114L169.125 22.299C169.125 22.5263 169.158 22.695 169.224 22.805C169.297 22.915 169.396 22.9883 169.521 23.025C169.646 23.0617 169.8 23.08 169.983 23.08H171.633V25.335C171.479 25.401 171.241 25.467 170.918 25.533C170.595 25.6063 170.122 25.643 169.499 25.643C168.406 25.643 167.559 25.5073 166.958 25.236C166.364 24.9573 165.95 24.5797 165.715 24.103C165.488 23.619 165.374 23.0727 165.374 22.464V16.689H163.526V14.126H165.506L166.463 10.639H169.114V14.104H171.611V16.689Z" fill="#F0F0F0"/>
<defs>
<linearGradient id="paint0_linear_1418_743" x1="9.12538" y1="14.0887" x2="6.06721" y2="17.1469" gradientUnits="userSpaceOnUse">
<stop stop-color="#023B95"/>
<stop offset="0.9637" stop-color="#096CD9" stop-opacity="0"/>
</linearGradient>
<linearGradient id="paint1_linear_1418_743" x1="26.7675" y1="14.1278" x2="29.2404" y2="16.9379" gradientUnits="userSpaceOnUse">
<stop stop-color="#023B95"/>
<stop offset="1" stop-color="#096DD9" stop-opacity="0"/>
</linearGradient>
</defs>
</svg>
