<svg width="49" height="48" viewBox="0 0 49 48" fill="none" xmlns="http://www.w3.org/2000/svg">
<path d="M42.9282 16.711H31.7853V5.56817C31.7853 5.09674 31.3996 4.71103 30.9282 4.71103H6.07101C5.59958 4.71103 5.21387 5.09674 5.21387 5.56817V30.4253C5.21387 30.8967 5.59958 31.2825 6.07101 31.2825H17.2139V42.4253C17.2139 42.8967 17.5996 43.2825 18.071 43.2825H42.9282C43.3996 43.2825 43.7853 42.8967 43.7853 42.4253V17.5682C43.7853 17.0967 43.3996 16.711 42.9282 16.711ZM17.2139 17.5682V27.6396H8.85672V8.35389H28.1424V16.711H18.071C17.5996 16.711 17.2139 17.0967 17.2139 17.5682ZM28.1424 20.3539V27.6396H20.8567V20.3539H28.1424ZM40.1424 39.6396H20.8567V31.2825H30.9282C31.3996 31.2825 31.7853 30.8967 31.7853 30.4253V20.3539H40.1424V39.6396Z" fill="#FAAD14"/>
</svg>
