<svg width="17" height="14" viewBox="0 0 17 14" fill="none" xmlns="http://www.w3.org/2000/svg">
<path d="M16.8939 2.02871C16.2792 2.29388 15.6102 2.48473 14.9211 2.55906C15.6365 2.13405 16.1723 1.46259 16.4278 0.67067C15.7565 1.07002 15.0211 1.35006 14.2542 1.49835C13.9336 1.15568 13.546 0.882692 13.1153 0.696399C12.6847 0.510106 12.2203 0.414499 11.751 0.415536C9.85261 0.415536 8.32583 1.95438 8.32583 3.84277C8.32583 4.10795 8.35797 4.37313 8.4102 4.62826C5.56757 4.4796 3.0323 3.12156 1.34681 1.04232C1.03969 1.56688 0.878756 2.16416 0.880737 2.77201C0.880737 3.96129 1.48542 5.00996 2.40752 5.6267C1.86412 5.6053 1.33343 5.45593 0.858639 5.19076V5.23295C0.858639 6.89835 2.03587 8.27848 3.60484 8.59589C3.31025 8.67241 3.0072 8.71156 2.70284 8.71241C2.47984 8.71241 2.26891 8.69031 2.05596 8.66018C2.48989 10.0182 3.75351 11.0046 5.25819 11.0367C4.08096 11.9588 2.60641 12.5012 1.00529 12.5012C0.718014 12.5012 0.452836 12.4912 0.177612 12.4591C1.69636 13.4334 3.49837 13.9959 5.439 13.9959C11.739 13.9959 15.1863 8.7767 15.1863 4.24656C15.1863 4.0979 15.1863 3.94924 15.1763 3.80058C15.8432 3.31241 16.4278 2.70772 16.8939 2.02871Z" fill="#FAFAFA"/>
</svg>
